<svg xmlns="http://www.w3.org/2000/svg" width="64" height="64" viewBox="0 0 64 64" fill="none">
  <title>Fork and knife</title>
  <g fill="#690507">
    <!-- Fork -->
    <path d="M18 6c1.1 0 2 .9 2 2v16c0 2.2 1.8 4 4 4h2v28c0 1.1-.9 2-2 2h-4c-1.1 0-2-.9-2-2V28h-2c-2.2 0-4-1.8-4-4V8c0-1.1.9-2 2-2s2 .9 2 2v14c0 .6.4 1 1 1h1V8c0-1.1.9-2 2-2Z"/>
    <path d="M24 6c1.1 0 2 .9 2 2v15h1c.6 0 1-.4 1-1V8c0-1.1.9-2 2-2s2 .9 2 2v16c0 2.2-1.8 4-4 4h-2v28c0 1.1-.9 2-2 2h-2c-1.1 0-2-.9-2-2V28h2c2.2 0 4-1.8 4-4V8c0-1.1.9-2 2-2Z" opacity=".0"/>

    <!-- Knife -->
    <path d="M44 6c4.4 0 8 3.6 8 8v8c0 9.3-6.7 12.7-10 14.2V56c0 1.1-.9 2-2 2h-4c-1.1 0-2-.9-2-2V40.1c0-1.6.9-3 2.3-3.7 2.3-1.1 7.7-4 7.7-14.4v-8c0-1.1-.9-2-2-2h-1v44c0 1.1-.9 2-2 2h-2c-1.1 0-2-.9-2-2V8c0-1.1.9-2 2-2h5Z"/>
  </g>
</svg>